<?xml version="1.0" encoding="utf-8"?>
<!-- Generator: Adobe Illustrator 24.0.2, SVG Export Plug-In . SVG Version: 6.00 Build 0)  -->
<svg version="1.1" id="Layer_1" xmlns="http://www.w3.org/2000/svg" xmlns:xlink="http://www.w3.org/1999/xlink" x="0px" y="0px"
	 viewBox="0 0 75 75" style="enable-background:new 0 0 75 75;" xml:space="preserve">
<style type="text/css">
	.st0{fill:#FFC107;}
</style>
<g>
	<path class="st0" d="M71.3,60c2.1,0,3.8-1.7,3.8-3.8V3.7C75,1.7,73.3,0,71.3,0H3.8C1.7,0,0,1.7,0,3.7v52.5C0,58.3,1.7,60,3.8,60
		h3.8v2.5h-3c-1.2,0-2.2,0.5-3,1.4c-0.7,0.9-1,2.1-0.7,3.2l1.3,5C2.5,73.8,4,75,5.7,75h63.6c1.7,0,3.2-1.2,3.6-2.8l1.3-5
		c0.3-1.1,0-2.3-0.7-3.2c-0.7-0.9-1.8-1.4-3-1.4h-3V60H71.3z M2.5,56.2V3.7c0-0.7,0.6-1.3,1.3-1.3h67.5c0.7,0,1.3,0.6,1.3,1.3v52.5
		c0,0.7-0.6,1.3-1.3,1.3H3.8C3.1,57.5,2.5,56.9,2.5,56.2z M71.5,65.5c0.2,0.3,0.3,0.7,0.2,1.1l-1.3,5c-0.1,0.6-0.6,0.9-1.2,0.9H5.7
		c-0.6,0-1.1-0.4-1.2-0.9l-1.3-5c-0.1-0.4,0-0.8,0.2-1.1c0.2-0.3,0.6-0.5,1-0.5h21.8v3.8c0,0.7,0.6,1.3,1.3,1.3h20
		c0.7,0,1.3-0.6,1.3-1.3V65h21.8C70.9,65,71.3,65.2,71.5,65.5z M28.8,65h17.5v2.5H28.8V65z M65,62.5H10V60h55V62.5z"/>
	<path class="st0" d="M71.3,53V7c0-1.8-1.4-3.2-3.2-3.2H7C5.2,3.7,3.8,5.2,3.8,7v46c0,1.8,1.4,3.2,3.2,3.2h61
		C69.8,56.2,71.3,54.8,71.3,53z M7,6.2h61c0.4,0,0.7,0.3,0.7,0.7v4.3H6.3V7C6.3,6.6,6.6,6.2,7,6.2z M6.3,53V13.7h62.5V53
		c0,0.4-0.3,0.7-0.7,0.7H7C6.6,53.7,6.3,53.4,6.3,53z"/>
	<path class="st0" d="M8.8,7.5h2.5V10H8.8V7.5z"/>
	<path class="st0" d="M12.5,7.5H15V10h-2.5V7.5z"/>
	<path class="st0" d="M16.3,7.5h2.5V10h-2.5V7.5z"/>
	<path class="st0" d="M63.8,7.5h2.5V10h-2.5V7.5z"/>
	<path class="st0" d="M40,16h-5c-2.1,0-3.8,1.7-3.8,3.7v10c0,2.1,1.7,3.8,3.8,3.8h5c2.1,0,3.8-1.7,3.8-3.8v-10
		C43.8,17.7,42.1,16,40,16z M41.3,29.7c0,0.7-0.6,1.3-1.3,1.3h-5c-0.7,0-1.3-0.6-1.3-1.3v-10c0-0.7,0.6-1.3,1.3-1.3h5
		c0.7,0,1.3,0.6,1.3,1.3V29.7z"/>
	<path class="st0" d="M27.5,26h-1.3v-8.8c0-0.7-0.6-1.2-1.3-1.2s-1.3,0.6-1.3,1.2V26h-6.3c-0.7,0-1.3-0.6-1.3-1.3v-7.5
		c0-0.7-0.6-1.2-1.3-1.2s-1.3,0.6-1.3,1.2v7.5c0,2.1,1.7,3.8,3.8,3.8h6.3v3.8c0,0.7,0.6,1.3,1.3,1.3s1.3-0.6,1.3-1.3v-3.8h1.3
		c0.7,0,1.3-0.6,1.3-1.3S28.2,26,27.5,26z"/>
	<path class="st0" d="M60,26h-1.3v-8.8c0-0.7-0.6-1.2-1.3-1.2s-1.3,0.6-1.3,1.2V26H50c-0.7,0-1.3-0.6-1.3-1.3v-7.5
		c0-0.7-0.6-1.2-1.3-1.2s-1.3,0.6-1.3,1.2v7.5c0,2.1,1.7,3.8,3.8,3.8h6.3v3.8c0,0.7,0.6,1.3,1.3,1.3s1.3-0.6,1.3-1.3v-3.8H60
		c0.7,0,1.3-0.6,1.3-1.3S60.7,26,60,26z"/>
</g>
<g>
	<path class="st0" d="M9,42.5c0.3-0.1,0.8-0.1,1.5-0.1c0.7,0,1.2,0.1,1.5,0.4c0.3,0.2,0.5,0.7,0.5,1.1s-0.2,0.9-0.5,1.2
		c-0.4,0.4-0.9,0.5-1.6,0.5c-0.1,0-0.3,0-0.4,0v1.7H9V42.5z M10.1,44.8c0.1,0,0.2,0,0.4,0c0.6,0,1-0.3,1-0.8c0-0.4-0.3-0.7-0.9-0.7
		c-0.2,0-0.4,0-0.5,0V44.8z"/>
	<path class="st0" d="M14,46.1l-0.4,1.3h-1.2l1.5-4.9h1.5l1.5,4.9h-1.2l-0.4-1.3H14z M15.2,45.3l-0.3-1c-0.1-0.3-0.2-0.7-0.2-0.9h0
		c-0.1,0.3-0.1,0.7-0.2,0.9l-0.3,1H15.2z"/>
	<path class="st0" d="M21.6,47.1c-0.3,0.1-1,0.3-1.6,0.3c-0.9,0-1.6-0.2-2-0.7c-0.5-0.4-0.7-1.1-0.7-1.8c0-1.6,1.2-2.6,2.8-2.6
		c0.6,0,1.1,0.1,1.4,0.2l-0.2,0.9c-0.3-0.1-0.6-0.2-1.1-0.2c-0.9,0-1.6,0.5-1.6,1.6c0,1,0.6,1.6,1.6,1.6c0.3,0,0.5,0,0.5-0.1v-1
		h-0.8v-0.9h1.8V47.1z"/>
	<path class="st0" d="M25.4,45.3h-1.8v1.2h2v0.9h-3.1v-4.9h3v0.9h-1.9v1h1.8V45.3z"/>
	<path class="st0" d="M27.8,47.4v-4.9h1.3l1,1.8c0.3,0.5,0.6,1.1,0.8,1.7h0c-0.1-0.6-0.1-1.3-0.1-2v-1.4h1v4.9h-1.2l-1.1-1.9
		c-0.3-0.5-0.6-1.2-0.9-1.7l0,0c0,0.6,0,1.3,0,2.1v1.5H27.8z"/>
	<path class="st0" d="M37.4,44.9c0,1.6-1,2.6-2.4,2.6c-1.5,0-2.3-1.1-2.3-2.5c0-1.5,0.9-2.6,2.4-2.6C36.6,42.4,37.4,43.5,37.4,44.9z
		 M33.9,44.9c0,1,0.5,1.6,1.2,1.6c0.8,0,1.2-0.7,1.2-1.7c0-0.9-0.4-1.6-1.2-1.6C34.3,43.3,33.9,44,33.9,44.9z"/>
	<path class="st0" d="M38.9,43.4h-1.3v-0.9h3.8v0.9H40v4h-1.1V43.4z"/>
	<path class="st0" d="M43.5,42.5h3v0.9h-1.9v1.1h1.8v0.9h-1.8v2h-1.1V42.5z"/>
	<path class="st0" d="M51.8,44.9c0,1.6-1,2.6-2.4,2.6c-1.5,0-2.3-1.1-2.3-2.5c0-1.5,0.9-2.6,2.4-2.6C51,42.4,51.8,43.5,51.8,44.9z
		 M48.3,44.9c0,1,0.5,1.6,1.2,1.6c0.8,0,1.2-0.7,1.2-1.7c0-0.9-0.4-1.6-1.2-1.6C48.7,43.3,48.3,44,48.3,44.9z"/>
	<path class="st0" d="M53.7,42.5v2.8c0,0.8,0.3,1.3,0.9,1.3c0.6,0,0.9-0.4,0.9-1.3v-2.8h1.1v2.7c0,1.5-0.8,2.2-2.1,2.2
		c-1.2,0-2-0.7-2-2.2v-2.7H53.7z"/>
	<path class="st0" d="M57.6,47.4v-4.9h1.3l1,1.8c0.3,0.5,0.6,1.1,0.8,1.7h0c-0.1-0.6-0.1-1.3-0.1-2v-1.4h1v4.9h-1.2l-1.1-1.9
		c-0.3-0.5-0.6-1.2-0.9-1.7l0,0c0,0.6,0,1.3,0,2.1v1.5H57.6z"/>
	<path class="st0" d="M62.6,42.5c0.4-0.1,0.9-0.1,1.5-0.1c0.9,0,1.5,0.2,2,0.5c0.5,0.4,0.8,1,0.8,1.8c0,0.9-0.3,1.6-0.8,2
		c-0.5,0.4-1.3,0.6-2.3,0.6c-0.6,0-1,0-1.3-0.1V42.5z M63.8,46.5c0.1,0,0.3,0,0.4,0c1,0,1.7-0.5,1.7-1.7c0-1-0.6-1.6-1.6-1.6
		c-0.2,0-0.4,0-0.5,0V46.5z"/>
</g>
</svg>
