<?xml version="1.0" encoding="utf-8"?>
<!-- Generator: Adobe Illustrator 24.0.2, SVG Export Plug-In . SVG Version: 6.00 Build 0)  -->
<svg version="1.1" id="Layer_1" xmlns="http://www.w3.org/2000/svg" xmlns:xlink="http://www.w3.org/1999/xlink" x="0px" y="0px"
	 viewBox="0 0 540 511" style="enable-background:new 0 0 540 511;" xml:space="preserve">
<style type="text/css">
	.st0{fill:url(#SVGID_1_);}
	.st1{fill:#FFC107;}
</style>
<linearGradient id="SVGID_1_" gradientUnits="userSpaceOnUse" x1="2.7922" y1="503.776" x2="529.7922" y2="14.776">
	<stop  offset="0" style="stop-color:#292929"/>
	<stop  offset="0.2981" style="stop-color:#242424"/>
	<stop  offset="0.653" style="stop-color:#151515"/>
	<stop  offset="1" style="stop-color:#000000"/>
</linearGradient>
<rect x="0.4" class="st0" width="539.6" height="511.3"/>
<path class="st1" d="M0.4,292.6c0,0,166.9-41.1,159-153.5c-5-70.4,57.2-75.1,115.6-78.8c46-2.9,89.2-23.3,120.6-57.1l2.7-2.9
	L0.4,0.3V292.6z"/>
<path class="st1" d="M540,255.5c0,0-109.9,11.4-156.5,117.2c-36.1,81.8-107.9,80.9-138.6,76.3c-16.8-2.5-33.8-0.3-49.8,7.1
	c-19.2,8.9-39.9,25.3-43.6,55.2H540V255.5z"/>
<path class="st1" d="M437.2,301.2"/>
</svg>
