<?xml version="1.0" encoding="utf-8"?>
<!-- Generator: Adobe Illustrator 24.0.2, SVG Export Plug-In . SVG Version: 6.00 Build 0)  -->
<svg version="1.1" id="Layer_1" xmlns="http://www.w3.org/2000/svg" xmlns:xlink="http://www.w3.org/1999/xlink" x="0px" y="0px"
	 viewBox="0 0 123 125" style="enable-background:new 0 0 123 125;" xml:space="preserve">
<style type="text/css">
	.st0{display:none;fill:#0D2030;}
	.st1{fill:url(#SVGID_1_);}
	.st2{fill:url(#SVGID_2_);}
	.st3{fill:url(#SVGID_3_);}
	.st4{fill:url(#SVGID_4_);}
	.st5{display:none;}
	.st6{display:inline;}
	.st7{fill:url(#SVGID_5_);}
	.st8{fill:url(#SVGID_6_);}
	.st9{display:inline;fill:url(#SVGID_7_);stroke:#FFFFFF;stroke-miterlimit:10;}
	.st10{display:inline;fill:url(#SVGID_8_);stroke:#FFFFFF;stroke-miterlimit:10;}
	.st11{display:inline;fill:url(#SVGID_9_);}
	.st12{display:inline;fill:url(#SVGID_10_);}
</style>
<path class="st0" d="M14,0h95c7.7,0,14,6.3,14,14v97c0,7.7-6.3,14-14,14H14c-7.7,0-14-6.3-14-14V14C0,6.3,6.3,0,14,0z"/>
<path class="st0" d="M86.1,110.4h-44c-15.8,0-28.6-12.8-28.6-28.7v-44C13.5,22,26.3,9.2,42.1,9.2H86c15.8,0,28.7,12.8,28.7,28.6
	v43.9C114.7,97.6,101.9,110.4,86.1,110.4z"/>
<g>
	<g>
		
			<linearGradient id="SVGID_1_" gradientUnits="userSpaceOnUse" x1="1" y1="3201.145" x2="53.6339" y2="3201.145" gradientTransform="matrix(1 0 0 1 0 -3103)">
			<stop  offset="0" style="stop-color:#FFC61C"/>
			<stop  offset="1" style="stop-color:#F7931E"/>
		</linearGradient>
		<path class="st1" d="M51.1,71.4l-33.3,7.8c-2,0.5-3.1,3-1.9,4.3l4.6,5c0.8,0.9,0.6,2.3-0.4,3.5L2.5,109.4c-1.9,1.9-1.9,5.1,0,7
			l7.2,7.1c1.9,1.9,5.1,1.9,7,0l18-18c1-1,2.6-1.2,3.4-0.4l4.1,3.6c1.3,1.2,3.8,0,4.3-1.9l7.1-33.1C53.9,72.2,52.8,71,51.1,71.4z"/>
	</g>
</g>
<g>
	<g>
		
			<linearGradient id="SVGID_2_" gradientUnits="userSpaceOnUse" x1="71.068" y1="3129.6841" x2="122.9462" y2="3129.6841" gradientTransform="matrix(1 0 0 1 0 -3103)">
			<stop  offset="0" style="stop-color:#FFC61C"/>
			<stop  offset="1" style="stop-color:#F7931E"/>
		</linearGradient>
		<path class="st2" d="M120.3,0.2L87.2,8c-2,0.5-3.1,3-1.8,4.3l4.6,5c0.8,0.9,0.6,2.5-0.4,3.5L73.1,37c-2.7,2.7-2.8,7,0,9.7l4.6,4.6
			c2.7,2.7,6.9,2.7,9.6,0l16.6-16.6c1-1,2.4-1.2,3.4-0.4l4.1,3.6c1.3,1.2,3.8,0,4.3-1.9l7.2-33.2C123.2,1,122-0.2,120.3,0.2z"/>
	</g>
</g>
<g>
	
		<linearGradient id="SVGID_3_" gradientUnits="userSpaceOnUse" x1="46.7664" y1="3179.4917" x2="114.5306" y2="3179.4917" gradientTransform="matrix(1 0 0 1 0 -3103)">
		<stop  offset="0" style="stop-color:#FFC61C"/>
		<stop  offset="1" style="stop-color:#F7931E"/>
	</linearGradient>
	<path class="st3" d="M108.6,40.6c-1.2-1.1-3.3-1-4.5,0.2l-4.9,4.9c-0.6,0.6-0.9,1.4-0.7,2.2c0.3,1.7,0.5,3.5,0.5,5.3v15.9
		c0,15.6-12.7,28.4-28.4,28.4h-16c-0.6,0-1.2,0-1.8-0.1l-2.3,11.4c-0.2,1-0.7,1.8-1.5,2.5l-1.5,1.3c-0.2,0.2-0.4,0.3-0.6,0.4h39.4
		c15.6,0,28.4-12.7,28.4-28.4V45.8L108.6,40.6z"/>
	
		<linearGradient id="SVGID_4_" gradientUnits="userSpaceOnUse" x1="10.7412" y1="3146.3391" x2="84.3241" y2="3146.3391" gradientTransform="matrix(1 0 0 1 0 -3103)">
		<stop  offset="0" style="stop-color:#FFC61C"/>
		<stop  offset="1" style="stop-color:#F7931E"/>
	</linearGradient>
	<path class="st4" d="M56.6,24.9h14.1c2.2,0,4.4,0.3,6.4,0.7c0.6,0.1,1.3,0,1.7-0.5l4.5-4.5c1.3-1.3,1.3-3.3,0.2-4.5l-5.7-6.2
		c-0.3-0.4-0.8-0.6-1.3-0.6H40.9C24.3,9.4,10.7,22.9,10.7,39.6v35.8c0,1.3,1.2,2.2,2.4,1.8c0.1-0.1,0.3-0.1,0.5-0.2L25,74.2
		c0.9-0.2,1.5-1.1,1.4-2c-0.1-0.9-0.1-1.9-0.1-3v-14C26.4,38.5,39.8,24.9,56.6,24.9z"/>
</g>
<g class="st5">
	<g class="st6">
		
			<linearGradient id="SVGID_5_" gradientUnits="userSpaceOnUse" x1="6.3814" y1="3196.3586" x2="54.6395" y2="3196.3586" gradientTransform="matrix(1 0 0 1 0 -3103)">
			<stop  offset="0" style="stop-color:#FFC61C"/>
			<stop  offset="1" style="stop-color:#F7931E"/>
		</linearGradient>
		<path class="st7" d="M52.4,69.2l-30.2,6.9c-1.9,0.5-2.8,2.6-1.8,3.8l4.2,4.5c0.7,0.8,0.6,2.1-0.4,3.1L7.3,103.9
			c-1.3,1.2-1.3,3.3,0,4.6l8.4,8.2c1.2,1.2,3.2,1.2,4.4,0l17.2-16.9c0.9-0.9,2.3-1.1,3.1-0.4l3.7,3.2c1.2,1.1,3.4,0,3.9-1.7
			l6.5-29.5C54.9,69.9,53.8,68.8,52.4,69.2z"/>
	</g>
</g>
<g class="st5">
	<g class="st6">
		
			<linearGradient id="SVGID_6_" gradientUnits="userSpaceOnUse" x1="70.275" y1="3132.8647" x2="118.3301" y2="3132.8647" gradientTransform="matrix(1 0 0 1 0 -3103)">
			<stop  offset="0" style="stop-color:#FFC61C"/>
			<stop  offset="1" style="stop-color:#F7931E"/>
		</linearGradient>
		<path class="st8" d="M116,5.9l-30.1,6.9c-1.9,0.5-2.8,2.6-1.7,3.8l4.2,4.5c0.7,0.8,0.6,2.2-0.4,3.1l-16.6,16
			c-1.5,1.4-1.5,3.7,0,5.1l7.8,7.6c1.4,1.4,3.6,1.3,5,0l16.9-16.6c0.9-0.9,2.2-1.1,3.1-0.4l3.7,3.2c1.2,1.1,3.4,0,3.9-1.7l6.6-29.5
			C118.6,6.6,117.5,5.5,116,5.9z"/>
	</g>
</g>
<g class="st5">
	
		<linearGradient id="SVGID_7_" gradientUnits="userSpaceOnUse" x1="49.3028" y1="3176.8044" x2="110.7238" y2="3176.8044" gradientTransform="matrix(1 0 0 1 0 -3103)">
		<stop  offset="0" style="stop-color:#FFC61C"/>
		<stop  offset="1" style="stop-color:#F7931E"/>
	</linearGradient>
	<path class="st9" d="M105.4,41.8c-1.1-1-3-0.9-4.1,0.2l-4.4,4.4c-0.6,0.5-0.8,1.3-0.6,2c0.3,1.5,0.5,3.1,0.5,4.7v14.2
		c0,13.9-11.5,25.3-25.7,25.3H56.4c-0.6,0-1.1,0-1.7-0.1l-2.1,10.2c-0.2,0.9-0.6,1.6-1.4,2.2l-1.4,1.2c-0.2,0.2-0.4,0.3-0.6,0.4H85
		c14.2,0,25.7-11.3,25.7-25.3V46.5L105.4,41.8z"/>
	
		<linearGradient id="SVGID_8_" gradientUnits="userSpaceOnUse" x1="16.6" y1="3147.2021" x2="83.2951" y2="3147.2021" gradientTransform="matrix(1 0 0 1 0 -3103)">
		<stop  offset="0" style="stop-color:#FFC61C"/>
		<stop  offset="1" style="stop-color:#F7931E"/>
	</linearGradient>
	<path class="st10" d="M58.2,27.8H71c2,0,4,0.3,5.8,0.6c0.6,0.1,1.2,0,1.6-0.5l4.1-4c1.2-1.2,1.2-2.9,0.2-4l-5.2-5.5
		c-0.3-0.4-0.7-0.5-1.2-0.5H44C29,14,16.6,26,16.6,40.9v31.9c0,1.2,1.1,2,2.2,1.6c0.1-0.1,0.3-0.1,0.5-0.2l10.3-2.5
		c0.8-0.2,1.4-1,1.3-1.8s-0.1-1.7-0.1-2.6V54.8C30.8,39.9,43,27.8,58.2,27.8z"/>
</g>
<g class="st5">
	
		<linearGradient id="SVGID_9_" gradientUnits="userSpaceOnUse" x1="52.8" y1="49.2898" x2="110" y2="49.2898" gradientTransform="matrix(1 0 0 -1 0 125.8898)">
		<stop  offset="0" style="stop-color:#FFC61C"/>
		<stop  offset="1" style="stop-color:#F7931E"/>
	</linearGradient>
	<path class="st11" d="M103,46.9c-3.9,0-7,3.1-7,7v31.4c0,3.9-3.1,7-7,7H59.8c-3.9,0-7,3.1-7,7s3.1,7,7,7H103c3.9,0,7-3.1,7-7V53.9
		C110,50.1,106.9,46.9,103,46.9z"/>
	
		<linearGradient id="SVGID_10_" gradientUnits="userSpaceOnUse" x1="17.8" y1="83.3898" x2="77.689" y2="83.3898" gradientTransform="matrix(1 0 0 -1 0 125.8898)">
		<stop  offset="0" style="stop-color:#FFC61C"/>
		<stop  offset="1" style="stop-color:#F7931E"/>
	</linearGradient>
	<path class="st12" d="M77.6,21.1c0-3.9-3.1-7-7-7H24.8c-3.9,0-7,3.1-7,7v42.8c0,3.9,3.1,7,7,7s7-3.1,7-7V35.1c0-3.9,3.1-7,7-7h31.9
		C74.5,28.1,77.6,24.9,77.6,21.1z"/>
</g>
</svg>
